<svg xmlns="http://www.w3.org/2000/svg" width="334" height="126" viewBox="0 0 334 126">
<g>
<path d="M 0.00 63.00 L 0.00 0.00 L 167.00 0.00 L 334.00 0.00 L 334.00 63.00 L 334.00 126.00 L 167.00 126.00 L 0.00 126.00 L 0.00 63.00 ZM 297.44 118.83 C299.12,117.63 306.46,110.32 313.75,102.59 L 327.00 88.53 L 327.00 49.72 L 327.00 10.91 L 324.55 8.45 L 322.09 6.00 L 280.50 6.00 L 238.91 6.00 L 236.45 8.45 C234.12,10.79 234.00,11.51 234.00,22.79 C234.00,34.46 234.05,34.70 236.47,35.80 L 238.94 36.93 L 239.22 24.71 L 239.50 12.50 L 280.50 12.50 L 321.50 12.50 L 321.76 48.75 L 322.02 85.00 L 312.16 85.00 C294.89,85.00 293.00,86.92 293.00,104.42 L 293.00 115.03 L 266.25 114.77 L 239.50 114.50 L 239.21 104.11 L 238.93 93.72 L 236.46 96.03 C234.19,98.17 234.00,99.07 234.00,107.52 C234.00,117.22 234.83,119.14 239.50,120.28 C240.60,120.55 253.40,120.82 267.94,120.88 C293.57,121.00 294.47,120.93 297.44,118.83 ZM 231.09 95.00 L 246.45 78.00 L 253.25 84.75 C259.40,90.85 259.99,91.78 259.39,94.48 C258.78,97.29 258.85,97.37 260.62,95.98 C263.16,93.98 270.49,86.18 285.20,69.82 C291.96,62.30 297.85,56.11 298.27,56.07 C298.70,56.03 301.05,57.85 303.51,60.12 C306.60,62.97 308.12,63.81 308.43,62.87 C308.69,62.11 309.84,56.10 311.01,49.50 C312.18,42.90 313.50,35.56 313.96,33.18 C314.62,29.71 314.49,28.74 313.27,28.27 C311.56,27.62 281.95,32.82 280.66,34.01 C280.19,34.44 281.48,36.64 283.53,38.90 C287.92,43.76 289.28,41.36 271.23,60.79 C259.68,73.23 258.10,75.33 259.02,77.04 C259.60,78.12 260.46,79.00 260.93,79.00 C261.40,79.00 267.55,72.81 274.60,65.25 C281.64,57.69 288.98,49.82 290.90,47.76 L 294.39 44.02 L 291.52 41.02 C289.94,39.37 288.84,37.86 289.07,37.66 C289.52,37.28 305.91,34.00 307.34,34.00 C308.27,34.00 307.52,40.59 305.65,48.80 L 304.44 54.11 L 301.47 51.56 C299.84,50.15 298.19,49.00 297.81,49.00 C297.43,49.00 289.36,57.37 279.88,67.60 L 262.64 86.20 L 254.60 78.02 L 246.55 69.83 L 238.53 78.63 C234.11,83.48 226.34,91.93 221.25,97.43 C212.72,106.65 210.91,109.57 212.67,111.33 C214.34,113.01 216.68,110.94 231.09,95.00 ZM 229.35 81.48 L 239.00 70.97 L 239.00 60.01 L 239.00 49.04 L 241.50 50.18 C243.34,51.02 244.00,52.10 244.00,54.26 C244.00,56.27 245.08,58.28 247.40,60.60 C256.45,69.65 269.36,59.34 263.40,47.82 C261.91,44.93 261.93,44.57 263.76,42.12 C264.83,40.68 266.56,39.36 267.61,39.20 C276.33,37.81 279.74,28.09 273.29,23.01 C266.08,17.34 256.55,24.66 259.82,33.35 C261.39,37.49 258.14,43.00 254.14,43.00 C252.66,43.00 250.39,43.74 249.10,44.64 C246.85,46.22 246.39,46.11 237.87,41.94 C232.99,39.55 229.00,36.98 229.00,36.24 C229.00,30.69 222.46,26.25 217.07,28.13 C210.74,30.33 209.17,37.32 213.92,42.08 C217.18,45.33 222.85,46.09 224.95,43.56 C225.99,42.31 226.69,42.39 230.08,44.16 L 234.00 46.20 L 234.00 56.97 C234.00,69.18 234.36,68.39 223.30,80.27 C219.84,83.99 217.00,87.44 217.00,87.94 C217.00,89.53 218.19,92.00 218.96,92.00 C219.37,92.00 224.04,87.27 229.35,81.48 ZM 35.75 83.17 C38.14,81.92 41.20,79.15 42.75,76.80 C45.06,73.31 45.50,71.58 45.50,66.00 C45.50,60.42 45.06,58.69 42.75,55.20 C38.58,48.90 33.46,46.70 21.75,46.19 L 12.00 45.77 L 12.00 66.00 L 12.00 86.23 L 21.75 85.81 C29.27,85.48 32.47,84.88 35.75,83.17 ZM 82.00 82.50 L 82.00 79.00 L 72.00 79.00 L 62.00 79.00 L 62.00 74.04 L 62.00 69.08 L 70.25 68.79 L 78.50 68.50 L 78.50 65.50 L 78.50 62.50 L 70.25 62.21 L 62.00 61.92 L 62.00 56.96 L 62.00 52.00 L 72.07 52.00 L 82.13 52.00 L 81.82 49.25 L 81.50 46.50 L 68.25 46.22 L 55.00 45.94 L 55.00 65.30 C55.00,75.95 55.30,84.97 55.67,85.33 C56.03,85.70 62.11,86.00 69.17,86.00 L 82.00 86.00 L 82.00 82.50 ZM 114.52 83.17 C120.32,79.88 123.30,75.02 123.81,68.01 C124.34,60.69 122.83,56.09 118.51,51.87 C113.85,47.31 110.03,46.16 99.25,46.08 L 90.00 46.00 L 90.00 66.11 L 90.00 86.23 L 100.25 85.83 C108.59,85.52 111.25,85.02 114.52,83.17 ZM 154.58 84.11 C159.96,80.83 161.00,77.02 161.00,60.60 L 161.00 46.00 L 157.50 46.00 L 154.00 46.00 L 154.00 60.39 C154.00,72.96 153.76,75.07 152.13,77.09 C150.77,78.76 149.22,79.40 146.50,79.40 C143.78,79.40 142.23,78.76 140.87,77.09 C139.24,75.07 139.00,72.96 139.00,60.39 L 139.00 46.00 L 135.50 46.00 L 132.00 46.00 L 132.00 60.77 C132.00,77.53 133.03,80.94 139.06,84.17 C143.49,86.55 150.63,86.52 154.58,84.11 ZM 178.51 79.35 C180.70,75.69 182.95,72.67 183.50,72.62 C184.05,72.58 186.24,75.58 188.37,79.28 C192.10,85.75 192.39,86.00 196.12,86.00 C198.25,86.00 200.00,85.79 200.00,85.54 C200.00,85.28 197.47,80.89 194.39,75.79 C191.30,70.68 188.61,66.23 188.42,65.90 C188.22,65.56 190.43,61.51 193.33,56.90 C196.22,52.28 198.93,47.94 199.35,47.25 C199.92,46.33 199.06,46.00 196.10,46.00 C192.21,46.00 191.96,46.21 188.29,52.48 C186.21,56.05 184.26,58.97 183.96,58.98 C183.66,58.99 181.70,56.08 179.61,52.50 C175.96,46.26 175.66,46.00 171.91,46.00 C169.76,46.00 168.00,46.20 168.00,46.44 C168.00,46.68 170.48,50.82 173.50,55.63 C176.52,60.45 179.00,64.82 179.00,65.34 C179.00,65.86 176.59,70.16 173.64,74.89 C170.69,79.63 167.97,84.06 167.58,84.75 C167.08,85.65 167.94,86.00 170.70,86.00 C174.34,86.00 174.70,85.69 178.51,79.35 ZM 299.03 100.79 C298.99,90.27 299.52,89.77 310.27,90.21 L 317.50 90.50 L 308.28 100.00 L 299.05 109.50 L 299.03 100.79 ZM 250.38 56.46 C246.85,51.08 254.15,44.99 258.17,49.96 C260.40,52.72 260.45,53.91 258.44,56.78 C256.32,59.80 252.47,59.65 250.38,56.46 ZM 217.04 38.55 C214.66,35.68 217.94,31.27 221.46,32.62 C225.10,34.02 223.92,40.00 220.00,40.00 C219.03,40.00 217.70,39.35 217.04,38.55 ZM 265.20 32.80 C262.69,30.29 264.56,26.00 268.16,26.00 C269.14,26.00 270.41,26.90 271.00,28.00 C273.16,32.04 268.39,35.99 265.20,32.80 ZM 19.00 65.36 L 19.00 51.72 L 24.73 52.40 C31.36,53.18 34.32,54.84 37.04,59.30 C39.66,63.59 39.53,68.91 36.72,73.09 C33.74,77.51 30.66,78.97 24.25,78.99 L 19.00 79.00 L 19.00 65.36 ZM 97.22 65.75 L 97.50 52.50 L 103.21 52.69 C106.34,52.80 109.86,53.39 111.01,54.01 C116.66,57.03 118.87,67.65 115.05,73.43 C112.31,77.59 109.34,78.92 102.72,78.96 L 96.94 79.00 L 97.22 65.75 Z" fill="rgba(0,0,0,1)"/>
</g>
</svg>